# xmcd
#
# Track frame offsets:
#	150
#	12813
#	29441
#	46700
#	63118
#	78632
#	92637
#	107172
#	124586
#	139728
#	167336
#
# Disc length: 2603 seconds
#
# Revision: 0
# Processed by: cddbd v1.5.2PL0 Copyright (c) Steve Scherf et al.
# Submitted via: audiograbber 1.83.01
#
DISCID=7e0a290b
DTITLE=All Star Karaoke - ASK1010
DYEAR=2006
DGENRE=Country
TTITLE0=Billy Currington - Why, Why, Why
TTITLE1=Brad Paisley - The World
TTITLE2=Eric Church - How 'Bout You
TTITLE3=Faith Hill - The Lucky One
TTITLE4=Kenny Chesney - Summertime
TTITLE5=Neal McCoy - The Last if a Dying Breed
TTITLE6=Reba McEntire - Love Needs a Holiday
TTITLE7=Ronnie Milsap - Local Girls
TTITLE8=Shannon Brown - Pearls
TTITLE9=Tim McGraw - When the Stars Go Blue
TTITLE10=No Artist - Data Track
EXTD=
EXTT0=
EXTT1=
EXTT2=
EXTT3=
EXTT4=
EXTT5=
EXTT6=
EXTT7=
EXTT8=
EXTT9=
EXTT10=Data track with the install program for the Media Player Add-on program 
EXTT10=to play Karaoke directly from the PC
PLAYORDER=
